<svg width="26" height="26" viewBox="0 0 26 26" fill="none" xmlns="http://www.w3.org/2000/svg">
<g id="carbon:report">
<path id="Vector" d="M22.8816 6.00285L17.2149 0.12285C17.1773 0.0838597 17.1327 0.0529417 17.0835 0.0318627C17.0344 0.0107837 16.9817 -4.32541e-05 16.9286 1.29865e-07H7.21429C6.89224 1.29865e-07 6.58338 0.13275 6.35566 0.369046C6.12793 0.605341 6 0.925827 6 1.26V19.74C6 20.0742 6.12793 20.3947 6.35566 20.631C6.58338 20.8672 6.89224 21 7.21429 21H21.7857C22.1078 21 22.4166 20.8672 22.6443 20.631C22.8721 20.3947 23 20.0742 23 19.74V6.3C23 6.24483 22.9896 6.19019 22.9693 6.1392C22.949 6.08822 22.9192 6.04188 22.8816 6.00285ZM17.3333 1.43325L21.6177 5.88H17.3333V1.43325ZM21.7857 20.16H7.21429C7.10694 20.16 7.00398 20.1157 6.92808 20.037C6.85217 19.9582 6.80952 19.8514 6.80952 19.74V1.26C6.80952 1.14861 6.85217 1.04178 6.92808 0.963015C7.00398 0.88425 7.10694 0.84 7.21429 0.84H16.5238V6.3C16.5238 6.41139 16.5665 6.51822 16.6424 6.59698C16.7183 6.67575 16.8212 6.72 16.9286 6.72H22.1905V19.74C22.1905 19.8514 22.1478 19.9582 22.0719 20.037C21.996 20.1157 21.8931 20.16 21.7857 20.16Z" fill="#012970"/>
</g>
</svg>
