<svg width="20" height="20" viewBox="0 0 20 20" fill="none" xmlns="http://www.w3.org/2000/svg">
<g id="guidance:care-staff-area" clip-path="url(#clip0_634_1857)">
<path id="Vector" d="M0 18.75H19M10.6875 16.6667V11.6667C10.6875 11.6667 8.70833 10.4167 5.54167 10.4167C2.375 10.4167 0.395833 11.6667 0.395833 11.6667V16.6667M13.8542 1.25V3.75H11.4792V6.25H13.8542V8.75H16.2292V6.25H18.6042V3.75H16.2292V1.25H13.8542ZM5.339 8.75C5.339 8.75 3.16588 7.29333 3.16588 5.47167C3.16588 4.0625 4.22988 2.92 5.54246 2.92C6.85504 2.92 7.9135 4.0625 7.9135 5.47167C7.9135 7.29167 5.7475 8.75 5.7475 8.75H5.339Z" stroke="#012970" stroke-width="0.833333"/>
</g>
<defs>
<clipPath id="clip0_634_1857">
<rect width="20" height="20" fill="white"/>
</clipPath>
</defs>
</svg>
